<?xml version="1.0" standalone="no"?>
<!DOCTYPE svg PUBLIC "-//W3C//DTD SVG 20010904//EN"
 "http://www.w3.org/TR/2001/REC-SVG-20010904/DTD/svg10.dtd">
<svg version="1.0" xmlns="http://www.w3.org/2000/svg"
 width="330.000000pt" height="285.000000pt" viewBox="0 0 330.000000 285.000000"
 preserveAspectRatio="xMidYMid meet">

<g transform="translate(0.000000,285.000000) scale(0.100000,-0.100000)"
fill="#000000" stroke="none">
<path d="M1138 2834 c-43 -18 -49 -34 -15 -35 17 -1 14 -4 -15 -16 -21 -9 -38
-19 -38 -24 0 -4 16 -1 35 7 40 16 59 18 50 5 -3 -5 -31 -17 -63 -26 -76 -22
-274 -121 -322 -163 -21 -18 -52 -38 -67 -45 -16 -6 -58 -43 -92 -82 -35 -38
-76 -79 -91 -90 -15 -11 -28 -24 -28 -30 -3 -26 -47 -87 -73 -100 -16 -9 -29
-12 -29 -8 0 20 -59 -98 -65 -130 -8 -40 7 -51 24 -18 6 10 18 21 26 25 13 5
15 1 9 -17 -8 -26 -2 -21 16 12 8 15 8 21 1 17 -22 -14 -11 10 21 44 19 22 33
30 36 22 2 -6 8 -9 13 -6 6 3 -5 -18 -24 -48 -46 -71 -99 -179 -127 -255 -12
-35 -26 -63 -30 -63 -21 0 -32 32 -26 75 7 43 6 45 -17 45 -27 0 -52 -23 -42
-39 3 -6 -4 -29 -15 -52 -17 -32 -22 -60 -22 -130 -1 -49 1 -91 3 -92 2 -2 16
-11 31 -20 17 -11 25 -23 22 -32 -4 -8 1 -17 10 -21 25 -10 11 -179 -16 -206
-19 -19 -19 -20 -1 -33 12 -10 14 -14 4 -15 -9 0 -11 -8 -6 -27 12 -48 12 -81
-1 -76 -12 4 -24 70 -24 135 0 25 4 37 10 33 11 -7 6 27 -11 73 -5 13 -9 37
-9 54 0 27 -2 29 -16 17 -15 -12 -16 -31 -10 -157 12 -247 48 -387 167 -637
29 -61 61 -114 84 -135 20 -19 43 -50 50 -67 8 -18 19 -33 24 -33 6 0 11 -7
11 -15 0 -14 34 -34 53 -31 5 0 15 -14 23 -32 7 -18 18 -31 24 -27 13 8 52
-19 42 -31 -4 -5 -3 -6 2 -2 16 13 70 -19 127 -74 55 -53 128 -98 162 -98 9 0
19 -5 23 -11 3 -6 26 -19 50 -29 24 -11 44 -23 44 -29 0 -5 15 -11 33 -14 17
-3 61 -12 97 -22 170 -43 457 -63 649 -45 89 8 127 8 129 1 6 -19 137 -13 203
9 74 25 161 69 172 87 4 7 15 13 23 13 8 0 56 32 108 70 51 39 97 70 103 70 5
0 18 10 29 21 47 53 148 109 196 109 42 0 58 19 58 69 0 18 10 41 25 57 14 15
34 58 45 95 11 38 25 71 30 74 5 3 7 12 4 19 -3 7 2 19 11 26 8 7 15 26 15 44
0 17 11 60 24 96 42 114 64 192 82 301 15 90 16 114 5 170 -7 35 -16 114 -21
174 -4 61 -15 135 -23 165 -10 33 -13 58 -7 64 5 5 3 23 -5 45 -7 20 -16 56
-19 81 -11 77 -40 162 -63 184 -13 11 -23 30 -23 40 0 11 -29 73 -65 137 -36
65 -65 123 -65 129 0 7 -6 10 -12 7 -7 -2 -12 -12 -10 -22 2 -10 -1 -14 -7
-10 -6 3 -11 12 -11 19 0 8 -19 30 -42 49 -24 20 -88 79 -143 131 -55 53 -105
96 -110 96 -6 0 -26 14 -45 32 -35 32 -100 71 -107 64 -2 -2 15 -15 39 -30 24
-14 61 -41 83 -61 l40 -35 -32 9 c-17 5 -62 25 -100 45 -37 19 -86 38 -107 42
-22 4 -54 15 -70 25 -17 9 -76 29 -131 44 -55 15 -107 30 -115 32 -8 3 -33 7
-55 8 -22 1 -48 3 -57 4 -12 1 -16 7 -12 19 4 12 3 14 -4 4 -12 -17 -98 -12
-94 6 1 6 -2 12 -8 12 -5 0 -10 -5 -10 -11 0 -8 -12 -9 -37 -4 -21 4 -132 9
-248 11 -174 3 -216 1 -247 -12z m706 -515 l148 -122 -43 -38 -44 -39 44 -38
43 -38 -121 -100 c-67 -54 -126 -100 -132 -102 -5 -2 -9 42 -9 106 l0 110 80
66 c44 37 80 70 79 74 0 9 -174 151 -194 158 -9 4 -52 -24 -110 -71 -53 -43
-97 -81 -100 -84 -2 -4 22 -28 53 -53 119 -96 112 -84 112 -197 0 -55 -4 -102
-9 -106 -7 -4 -174 124 -251 193 -3 2 15 22 39 43 l44 39 -44 39 -44 39 25 20
c14 11 79 65 145 120 66 55 125 101 131 101 5 1 77 -54 158 -120z m-1253 3
c-5 -9 -19 -26 -31 -37 -21 -19 -21 -19 -13 1 6 16 41 52 51 54 1 0 -2 -8 -7
-18z m1154 -73 c28 -23 51 -44 53 -48 1 -4 -7 -16 -18 -26 -19 -17 -21 -17
-56 10 -24 19 -41 25 -49 19 -66 -49 -65 -49 -86 -27 -20 20 -20 20 37 66 31
26 59 47 63 47 3 0 29 -18 56 -41z m-1231 -24 c-27 -36 -34 -41 -34 -26 0 13
40 61 51 61 6 0 -2 -16 -17 -35z m729 -609 c50 -20 77 -68 77 -133 l0 -53 -60
0 c-57 0 -61 2 -70 28 -17 48 -26 57 -59 60 -60 6 -61 2 -61 -244 0 -189 2
-225 16 -238 24 -25 72 -24 92 2 18 23 16 136 -3 152 -9 7 -15 29 -15 52 l0
39 78 -3 77 -3 3 -187 c3 -202 3 -201 -47 -174 -21 12 -31 12 -65 -1 -49 -18
-151 -11 -196 12 -17 9 -40 30 -50 48 -18 30 -20 52 -20 295 0 313 3 323 97
358 46 17 154 12 206 -10z m439 14 c21 -6 40 -15 44 -21 9 -15 -65 -89 -89
-89 -47 0 -57 -17 -57 -95 0 -63 3 -76 19 -85 32 -16 59 -12 72 13 17 32 28
37 82 37 46 0 47 -1 47 -30 0 -27 3 -30 30 -30 l31 0 -3 -57 c-3 -55 -4 -58
-30 -61 l-28 -3 0 -82 c0 -45 4 -88 9 -95 5 -8 24 -17 42 -21 31 -6 34 -10 37
-45 5 -59 -11 -70 -88 -61 -71 7 -78 7 -165 -1 -50 -4 -68 -1 -105 18 -25 13
-55 39 -68 58 -22 32 -23 44 -20 142 3 95 6 110 25 129 l21 22 -21 29 c-30 40
-37 189 -12 242 37 77 131 112 227 86z m478 -37 c0 -20 -5 -51 -12 -69 -9 -26
-5 -68 22 -248 19 -118 35 -215 36 -213 1 1 17 100 35 221 30 206 31 220 15
246 -9 16 -16 44 -16 64 l0 36 101 0 102 0 -6 -45 c-2 -25 -12 -54 -20 -63
-10 -11 -33 -118 -65 -304 -28 -158 -53 -292 -57 -298 -3 -5 -43 -10 -90 -10
l-83 0 -11 33 c-5 17 -33 153 -61 302 -29 154 -57 277 -66 286 -8 8 -14 34
-14 57 l0 42 95 0 95 0 0 -37z m-852 -822 c17 -9 21 -18 16 -34 -10 -36 -20
-40 -54 -22 -37 19 -74 16 -78 -6 -2 -12 11 -22 45 -34 93 -34 119 -96 64
-157 -26 -29 -34 -32 -83 -32 -54 1 -115 24 -124 48 -3 7 0 25 5 40 l11 26 39
-26 c44 -28 94 -30 99 -3 2 12 -11 22 -45 35 -69 25 -93 50 -93 95 0 20 8 47
18 59 30 38 120 43 180 11z m584 17 c115 -34 139 -198 40 -273 -39 -29 -128
-32 -170 -6 -45 29 -72 77 -72 131 0 62 28 110 80 137 49 26 67 28 122 11z
m-434 -65 l3 -63 49 0 49 0 3 63 3 62 38 3 37 3 0 -150 0 -151 -40 0 -40 0 0
55 0 55 -50 0 -50 0 0 -55 0 -55 -40 0 -40 0 0 151 0 150 38 -3 37 -3 3 -62z
m768 52 c24 -10 39 -25 50 -51 31 -74 -26 -144 -118 -144 l-38 0 0 -46 0 -45
-37 3 -38 3 -3 134 c-1 74 0 141 2 148 7 18 137 17 182 -2z"/>
<path d="M1500 2062 l-21 -17 43 -36 c66 -54 68 -55 68 -16 0 28 -7 40 -34 61
-33 25 -35 25 -56 8z"/>
<path d="M1822 2055 c-25 -21 -32 -35 -32 -61 0 -39 2 -39 70 19 l33 28 -20
20 -20 20 -31 -26z"/>
<path d="M1580 1191 c-14 -27 -12 -121 3 -151 16 -31 56 -39 74 -14 8 11 13
48 13 101 l0 83 -40 0 c-29 0 -42 -5 -50 -19z"/>
<path d="M1815 720 c-32 -12 -47 -36 -47 -76 0 -74 77 -110 127 -59 35 34 33
78 -4 116 -31 30 -42 33 -76 19z"/>
<path d="M2120 685 c0 -32 2 -35 29 -35 44 0 61 10 61 35 0 25 -17 35 -61 35
-27 0 -29 -3 -29 -35z"/>
<path d="M1710 2840 c0 -5 5 -10 11 -10 5 0 7 5 4 10 -3 6 -8 10 -11 10 -2 0
-4 -4 -4 -10z"/>
<path d="M2108 2798 c5 -5 16 -8 23 -6 8 3 3 7 -10 11 -17 4 -21 3 -13 -5z"/>
<path d="M935 2750 c-3 -6 1 -7 9 -4 18 7 21 14 7 14 -6 0 -13 -4 -16 -10z"/>
<path d="M730 2620 c-19 -17 -30 -30 -24 -30 12 0 35 18 53 43 19 24 11 21
-29 -13z"/>
<path d="M646 2551 c-16 -9 -31 -22 -33 -28 -6 -17 24 -23 37 -7 7 8 9 14 5
14 -5 0 0 9 10 20 22 24 19 24 -19 1z"/>
<path d="M564 2466 c-30 -20 -105 -105 -127 -143 -7 -11 -20 -32 -31 -47 -10
-15 -16 -29 -13 -32 3 -4 14 7 24 23 10 16 24 29 31 27 8 -2 9 -1 1 3 -7 3 10
26 43 57 54 51 114 124 107 130 -2 1 -18 -7 -35 -18z"/>
<path d="M3157 1453 c-4 -3 -7 -18 -6 -32 1 -26 1 -25 10 3 9 31 7 41 -4 29z"/>
<path d="M3172 1370 c-6 -11 -12 -38 -12 -59 0 -22 -4 -43 -10 -46 -5 -3 -10
-17 -10 -31 0 -13 -4 -24 -10 -24 -5 0 -10 12 -10 28 -1 24 -2 25 -11 9 -6
-10 -8 -25 -5 -33 3 -8 2 -14 -2 -14 -4 0 -8 -30 -10 -67 -1 -43 -11 -89 -27
-129 -14 -34 -25 -71 -25 -81 0 -10 -6 -27 -14 -38 -7 -11 -15 -31 -18 -45 -3
-14 -9 -33 -13 -44 -8 -18 -7 -18 18 -1 l27 17 0 -28 1 -29 28 31 c16 17 36
53 46 80 9 27 21 57 27 68 16 31 38 109 38 139 0 15 5 27 11 27 7 0 9 11 6 30
-4 16 -2 32 2 35 5 2 11 22 14 42 2 21 7 49 11 62 3 14 0 31 -6 39 -11 12 -14
25 -20 70 -2 18 -11 15 -26 -8z"/>
<path d="M1061 46 c19 -19 123 -46 174 -45 58 1 59 1 20 9 -22 5 -60 16 -84
24 -38 14 -121 23 -110 12z"/>
</g>
</svg>
